<svg xmlns="http://www.w3.org/2000/svg" width="1000" height="300" viewBox="0 0 1000 300" role="img" aria-label="ACTIVITY / LAST 31 DAYS"><rect width="1000" height="300" fill="#191a17"/><g font-family="Arial, sans-serif" fill="#eeece3"><text x="36" y="40" font-size="16" letter-spacing="2">ACTIVITY / LAST 31 DAYS</text><path d="M60 230.0H964" stroke="#34352f"/><text x="35" y="234.0" font-size="11" fill="#b8b8ad">0</text><path d="M60 152.5H964" stroke="#34352f"/><text x="35" y="156.5" font-size="11" fill="#b8b8ad">4</text><path d="M60 75.0H964" stroke="#34352f"/><text x="35" y="79.0" font-size="11" fill="#b8b8ad">8</text><circle cx="65.0" cy="152.5" r="3" fill="#ff501e"><title>2026-08-14: 4</title></circle><text x="65.0" y="254" text-anchor="middle" font-size="11" fill="#b8b8ad">08-14</text><circle cx="94.8" cy="230.0" r="3" fill="#ff501e"><title>2026-08-15: 0</title></circle><circle cx="124.7" cy="230.0" r="3" fill="#ff501e"><title>2026-08-16: 0</title></circle><circle cx="154.5" cy="230.0" r="3" fill="#ff501e"><title>2026-08-17: 0</title></circle><circle cx="184.3" cy="230.0" r="3" fill="#ff501e"><title>2026-08-18: 0</title></circle><circle cx="214.2" cy="230.0" r="3" fill="#ff501e"><title>2026-08-19: 0</title></circle><circle cx="244.0" cy="171.9" r="3" fill="#ff501e"><title>2026-08-20: 3</title></circle><circle cx="273.8" cy="210.6" r="3" fill="#ff501e"><title>2026-08-21: 1</title></circle><circle cx="303.7" cy="171.9" r="3" fill="#ff501e"><title>2026-08-22: 3</title></circle><circle cx="333.5" cy="230.0" r="3" fill="#ff501e"><title>2026-08-23: 0</title></circle><circle cx="363.3" cy="230.0" r="3" fill="#ff501e"><title>2026-08-24: 0</title></circle><text x="363.3" y="254" text-anchor="middle" font-size="11" fill="#b8b8ad">08-24</text><circle cx="393.2" cy="230.0" r="3" fill="#ff501e"><title>2026-08-25: 0</title></circle><circle cx="423.0" cy="230.0" r="3" fill="#ff501e"><title>2026-08-26: 0</title></circle><circle cx="452.8" cy="230.0" r="3" fill="#ff501e"><title>2026-08-27: 0</title></circle><circle cx="482.7" cy="210.6" r="3" fill="#ff501e"><title>2026-08-28: 1</title></circle><circle cx="512.5" cy="230.0" r="3" fill="#ff501e"><title>2026-08-29: 0</title></circle><circle cx="542.3" cy="230.0" r="3" fill="#ff501e"><title>2026-08-30: 0</title></circle><circle cx="572.2" cy="230.0" r="3" fill="#ff501e"><title>2026-08-31: 0</title></circle><circle cx="602.0" cy="230.0" r="3" fill="#ff501e"><title>2026-09-01: 0</title></circle><circle cx="631.8" cy="230.0" r="3" fill="#ff501e"><title>2026-09-02: 0</title></circle><circle cx="661.7" cy="230.0" r="3" fill="#ff501e"><title>2026-09-03: 0</title></circle><text x="661.7" y="254" text-anchor="middle" font-size="11" fill="#b8b8ad">09-03</text><circle cx="691.5" cy="133.1" r="3" fill="#ff501e"><title>2026-09-04: 5</title></circle><circle cx="721.3" cy="230.0" r="3" fill="#ff501e"><title>2026-09-05: 0</title></circle><circle cx="751.2" cy="191.2" r="3" fill="#ff501e"><title>2026-09-06: 2</title></circle><circle cx="781.0" cy="230.0" r="3" fill="#ff501e"><title>2026-09-07: 0</title></circle><circle cx="810.8" cy="230.0" r="3" fill="#ff501e"><title>2026-09-08: 0</title></circle><circle cx="840.7" cy="210.6" r="3" fill="#ff501e"><title>2026-09-09: 1</title></circle><circle cx="870.5" cy="230.0" r="3" fill="#ff501e"><title>2026-09-10: 0</title></circle><circle cx="900.3" cy="230.0" r="3" fill="#ff501e"><title>2026-09-11: 0</title></circle><circle cx="930.2" cy="230.0" r="3" fill="#ff501e"><title>2026-09-12: 0</title></circle><circle cx="960.0" cy="75.0" r="3" fill="#ff501e"><title>2026-09-13: 8</title></circle><text x="960.0" y="254" text-anchor="middle" font-size="11" fill="#b8b8ad">09-13</text><polyline points="65.0,152.5 94.8,230.0 124.7,230.0 154.5,230.0 184.3,230.0 214.2,230.0 244.0,171.9 273.8,210.6 303.7,171.9 333.5,230.0 363.3,230.0 393.2,230.0 423.0,230.0 452.8,230.0 482.7,210.6 512.5,230.0 542.3,230.0 572.2,230.0 602.0,230.0 631.8,230.0 661.7,230.0 691.5,133.1 721.3,230.0 751.2,191.2 781.0,230.0 810.8,230.0 840.7,210.6 870.5,230.0 900.3,230.0 930.2,230.0 960.0,75.0" fill="none" stroke="#ff501e" stroke-width="3"/><text x="964" y="282" text-anchor="end" font-size="11" fill="#b8b8ad">GitHub · UTC · 2026-09-13</text></g></svg>